<svg width="147" height="27" viewBox="0 0 147 27" fill="none" xmlns="http://www.w3.org/2000/svg">
<path fill-rule="evenodd" clip-rule="evenodd" d="M1.54032 8.29109C0.759387 7.52852 0.759267 6.29223 1.53996 5.52952C1.54008 5.52941 1.53984 5.52964 1.53996 5.52952C1.54026 5.52923 1.54091 5.52859 1.54121 5.52829C2.02231 5.0586 2.53286 4.6352 3.06706 4.2581C3.55436 3.91409 4.06134 3.60861 4.5836 3.34165C8.20285 1.49159 12.5555 1.49159 16.1747 3.34165C16.697 3.60861 17.2039 3.91409 17.6912 4.2581C18.2258 4.63544 18.7366 5.05913 19.218 5.52917C19.9986 6.29147 19.999 7.52717 19.2192 8.28994C19.2188 8.29032 19.2184 8.2907 19.218 8.29109L13.2076 14.1602L19.218 20.0292C19.2185 20.0298 19.2191 20.0303 19.2196 20.0308C19.999 20.7937 19.9985 22.029 19.218 22.7911C18.7366 23.2612 18.2258 23.6849 17.6912 24.0622C17.2039 24.4062 16.697 24.7117 16.1747 24.9787C12.5555 26.8287 8.20284 26.8287 4.5836 24.9787C4.06134 24.7117 3.55436 24.4062 3.06706 24.0622C2.53253 23.6849 2.02168 23.2612 1.54032 22.7911C0.759569 22.0288 0.759267 20.7929 1.53941 20.0301C1.53971 20.0298 1.54001 20.0295 1.54032 20.0292L7.55072 14.1602L1.54032 8.29109ZM10.3791 11.3982L14.808 7.07352C14.1893 6.70412 13.5326 6.41906 12.8554 6.21834C11.2435 5.74061 9.51484 5.74061 7.90293 6.21834C7.22568 6.41906 6.56902 6.70412 5.95028 7.07352L10.3791 11.3982ZM5.95028 21.2468C6.56902 21.6162 7.22568 21.9012 7.90293 22.102C9.51484 22.5797 11.2435 22.5797 12.8554 22.102C13.5326 21.9012 14.1893 21.6162 14.808 21.2468L10.3791 16.9221L5.95028 21.2468Z" fill="#AAA8DC"/>
<path fill-rule="evenodd" clip-rule="evenodd" d="M1.00479 8.87898C0.223864 8.11641 0.223744 6.88012 1.00443 6.11741L1.00569 6.11618C1.48679 5.64649 1.99734 5.22309 2.53153 4.84599C3.01884 4.50198 3.52582 4.1965 4.04807 3.92954C7.66732 2.07948 12.0199 2.07948 15.6392 3.92954C16.1614 4.1965 16.6684 4.50198 17.1557 4.84599C17.6902 5.22333 18.2011 5.64702 18.6825 6.11706C19.4631 6.87936 19.4635 8.11506 18.6836 8.87783L18.6825 8.87898L12.6721 14.748L18.6825 20.6171L18.6841 20.6187C19.4635 21.3815 19.463 22.6169 18.6825 23.379C18.2011 23.8491 17.6902 24.2728 17.1557 24.6501C16.6684 24.9941 16.1614 25.2996 15.6392 25.5666C12.0199 27.4166 7.66732 27.4166 4.04807 25.5666C3.52582 25.2996 3.01884 24.9941 2.53153 24.6501C1.99701 24.2728 1.48615 23.8491 1.00479 23.379C0.224046 22.6166 0.223744 21.3807 1.00389 20.618L1.00479 20.6171L7.0152 14.748L1.00479 8.87898ZM9.84363 11.9861L14.2725 7.66141C13.6538 7.29201 12.9971 7.00695 12.3198 6.80623C10.7079 6.3285 8.97932 6.3285 7.36741 6.80623C6.69015 7.00695 6.0335 7.29201 5.41476 7.66141L9.84363 11.9861ZM5.41476 21.8347C6.0335 22.2041 6.69016 22.4891 7.36741 22.6899C8.97932 23.1676 10.7079 23.1676 12.3198 22.6899C12.9971 22.4891 13.6538 22.2041 14.2725 21.8347L9.84363 17.51L5.41476 21.8347Z" fill="#635FC7"/>
<path d="M37.2522 26.7087C35.5456 26.7087 34.0202 26.3034 32.6762 25.4927C31.3322 24.682 30.2656 23.5834 29.4762 22.1967C28.7082 20.81 28.3242 19.274 28.3242 17.5887C28.3242 15.882 28.7189 14.346 29.5082 12.9807C30.2976 11.594 31.3642 10.4954 32.7082 9.68471C34.0522 8.87404 35.5562 8.46871 37.2203 8.46871C38.5003 8.46871 39.6309 8.71404 40.6123 9.20471C41.6149 9.67404 42.4043 10.346 42.9803 11.2207L42.2443 12.1807V2.10071H47.0443V26.3247H42.5642V23.1247L43.0122 24.1167C42.4149 24.97 41.6042 25.6207 40.5802 26.0687C39.5563 26.4954 38.4469 26.7087 37.2522 26.7087ZM37.8282 22.3887C38.7029 22.3887 39.4709 22.186 40.1322 21.7807C40.7936 21.3754 41.3056 20.81 41.6683 20.0847C42.0523 19.3594 42.2443 18.5274 42.2443 17.5887C42.2443 16.65 42.0523 15.818 41.6683 15.0927C41.3056 14.3674 40.7936 13.802 40.1322 13.3967C39.4709 12.9914 38.7029 12.7887 37.8282 12.7887C36.9536 12.7887 36.1642 13.002 35.4602 13.4287C34.7776 13.834 34.2442 14.3994 33.8602 15.1247C33.4762 15.8287 33.2842 16.65 33.2842 17.5887C33.2842 18.5274 33.4762 19.3594 33.8602 20.0847C34.2442 20.81 34.7776 21.3754 35.4602 21.7807C36.1642 22.186 36.9536 22.3887 37.8282 22.3887ZM59.2315 26.7087C57.5035 26.7087 55.9248 26.314 54.4955 25.5247C53.0875 24.7354 51.9568 23.658 51.1035 22.2927C50.2715 20.906 49.8555 19.338 49.8555 17.5887C49.8555 15.818 50.2715 14.25 51.1035 12.8847C51.9568 11.5194 53.0875 10.442 54.4955 9.65271C55.9248 8.86337 57.5035 8.46871 59.2315 8.46871C60.9595 8.46871 62.5275 8.86337 63.9355 9.65271C65.3435 10.442 66.4635 11.5194 67.2955 12.8847C68.1488 14.25 68.5755 15.818 68.5755 17.5887C68.5755 19.338 68.1488 20.906 67.2955 22.2927C66.4635 23.658 65.3435 24.7354 63.9355 25.5247C62.5275 26.314 60.9595 26.7087 59.2315 26.7087ZM59.2315 22.3887C60.1062 22.3887 60.8635 22.186 61.5035 21.7807C62.1648 21.3754 62.6768 20.81 63.0395 20.0847C63.4235 19.3594 63.6155 18.5274 63.6155 17.5887C63.6155 16.65 63.4235 15.8287 63.0395 15.1247C62.6768 14.3994 62.1648 13.834 61.5035 13.4287C60.8635 13.002 60.1062 12.7887 59.2315 12.7887C58.3568 12.7887 57.5888 13.002 56.9275 13.4287C56.2662 13.834 55.7435 14.3994 55.3595 15.1247C54.9968 15.8287 54.8155 16.65 54.8155 17.5887C54.8155 18.5274 54.9968 19.3594 55.3595 20.0847C55.7435 20.81 56.2662 21.3754 56.9275 21.7807C57.5888 22.186 58.3568 22.3887 59.2315 22.3887ZM71.4032 26.3247V8.85271H75.8832V12.3087L75.6272 11.5407C76.0326 10.4954 76.6832 9.72737 77.5792 9.23671C78.4966 8.72471 79.5632 8.46871 80.7793 8.46871C82.1019 8.46871 83.2539 8.74604 84.2353 9.30071C85.2379 9.85537 86.0166 10.634 86.5713 11.6367C87.1259 12.618 87.4032 13.77 87.4032 15.0927V26.3247H82.6033V16.1167C82.6033 15.434 82.4646 14.8474 82.1873 14.3567C81.9313 13.866 81.5579 13.482 81.0673 13.2047C80.5979 12.9274 80.0432 12.7887 79.4032 12.7887C78.7846 12.7887 78.2299 12.9274 77.7393 13.2047C77.2486 13.482 76.8646 13.866 76.5872 14.3567C76.3312 14.8474 76.2032 15.434 76.2032 16.1167V26.3247H71.4032ZM98.9755 26.7087C97.1195 26.7087 95.5088 26.3034 94.1435 25.4927C92.7782 24.6607 91.7222 23.5514 90.9755 22.1647C90.2288 20.778 89.8555 19.242 89.8555 17.5567C89.8555 15.8074 90.2395 14.25 91.0075 12.8847C91.7968 11.5194 92.8528 10.442 94.1755 9.65271C95.4982 8.86337 96.9915 8.46871 98.6555 8.46871C100.042 8.46871 101.269 8.69271 102.335 9.14071C103.402 9.56737 104.298 10.1754 105.024 10.9647C105.77 11.754 106.336 12.6714 106.719 13.7167C107.103 14.7407 107.295 15.8607 107.295 17.0767C107.295 17.418 107.274 17.7594 107.232 18.1007C107.21 18.4207 107.157 18.698 107.072 18.9327H93.9835V15.4127H104.352L102.08 17.0767C102.293 16.1594 102.282 15.3487 102.048 14.6447C101.813 13.9194 101.397 13.354 100.8 12.9487C100.224 12.522 99.5088 12.3087 98.6555 12.3087C97.8235 12.3087 97.1088 12.5114 96.5115 12.9167C95.9142 13.322 95.4662 13.9194 95.1675 14.7087C94.8688 15.498 94.7515 16.458 94.8155 17.5887C94.7302 18.57 94.8475 19.434 95.1675 20.1807C95.4875 20.9274 95.9782 21.514 96.6395 21.9407C97.3008 22.346 98.1008 22.5487 99.0395 22.5487C99.8928 22.5487 100.618 22.378 101.215 22.0367C101.834 21.6954 102.314 21.226 102.656 20.6287L106.496 22.4527C106.154 23.306 105.61 24.0527 104.864 24.6927C104.138 25.3327 103.274 25.834 102.272 26.1967C101.269 26.538 100.17 26.7087 98.9755 26.7087ZM108.714 26.3247V22.4847L118.762 11.4127L119.466 13.0127H109.13V8.85271H123.722V12.6927L113.93 23.7967L113.226 22.1647H123.754V26.3247H108.714ZM134.544 26.7087C132.816 26.7087 131.237 26.314 129.808 25.5247C128.4 24.7354 127.269 23.658 126.416 22.2927C125.584 20.906 125.168 19.338 125.168 17.5887C125.168 15.818 125.584 14.25 126.416 12.8847C127.269 11.5194 128.4 10.442 129.808 9.65271C131.237 8.86337 132.816 8.46871 134.544 8.46871C136.272 8.46871 137.84 8.86337 139.248 9.65271C140.656 10.442 141.776 11.5194 142.608 12.8847C143.461 14.25 143.888 15.818 143.888 17.5887C143.888 19.338 143.461 20.906 142.608 22.2927C141.776 23.658 140.656 24.7354 139.248 25.5247C137.84 26.314 136.272 26.7087 134.544 26.7087ZM134.544 22.3887C135.419 22.3887 136.176 22.186 136.816 21.7807C137.477 21.3754 137.989 20.81 138.352 20.0847C138.736 19.3594 138.928 18.5274 138.928 17.5887C138.928 16.65 138.736 15.8287 138.352 15.1247C137.989 14.3994 137.477 13.834 136.816 13.4287C136.176 13.002 135.419 12.7887 134.544 12.7887C133.669 12.7887 132.901 13.002 132.24 13.4287C131.579 13.834 131.056 14.3994 130.672 15.1247C130.309 15.8287 130.128 16.65 130.128 17.5887C130.128 18.5274 130.309 19.3594 130.672 20.0847C131.056 20.81 131.579 21.3754 132.24 21.7807C132.901 22.186 133.669 22.3887 134.544 22.3887Z" fill="#F4F7FD"/>
</svg>
