<svg width="160" height="26" viewBox="0 0 160 26" fill="none" xmlns="http://www.w3.org/2000/svg">
<path d="M52.6923 25.5221C50.9856 25.5221 49.4603 25.1167 48.1163 24.3061C46.7723 23.4954 45.7056 22.3967 44.9163 21.0101C44.1483 19.6234 43.7643 18.0874 43.7643 16.4021C43.7643 14.6954 44.1589 13.1594 44.9483 11.7941C45.7376 10.4074 46.8043 9.30873 48.1483 8.49806C49.4923 7.6874 50.9963 7.28206 52.6603 7.28206C53.9403 7.28206 55.0709 7.5274 56.0523 8.01806C57.0549 8.4874 57.8443 9.1594 58.4203 10.0341L57.6843 10.9941V0.914062H62.4843V25.1381H58.0043V21.9381L58.4523 22.9301C57.8549 23.7834 57.0443 24.4341 56.0203 24.8821C54.9963 25.3087 53.8869 25.5221 52.6923 25.5221ZM53.2683 21.2021C54.1429 21.2021 54.9109 20.9994 55.5723 20.5941C56.2336 20.1887 56.7456 19.6234 57.1083 18.8981C57.4923 18.1727 57.6843 17.3407 57.6843 16.4021C57.6843 15.4634 57.4923 14.6314 57.1083 13.9061C56.7456 13.1807 56.2336 12.6154 55.5723 12.2101C54.9109 11.8047 54.1429 11.6021 53.2683 11.6021C52.3936 11.6021 51.6043 11.8154 50.9003 12.2421C50.2176 12.6474 49.6843 13.2127 49.3003 13.9381C48.9163 14.6421 48.7243 15.4634 48.7243 16.4021C48.7243 17.3407 48.9163 18.1727 49.3003 18.8981C49.6843 19.6234 50.2176 20.1887 50.9003 20.5941C51.6043 20.9994 52.3936 21.2021 53.2683 21.2021Z" fill="#000112"/>
<path d="M74.6715 25.5221C72.9435 25.5221 71.3649 25.1274 69.9355 24.3381C68.5275 23.5487 67.3969 22.4714 66.5435 21.1061C65.7115 19.7194 65.2955 18.1514 65.2955 16.4021C65.2955 14.6314 65.7115 13.0634 66.5435 11.6981C67.3969 10.3327 68.5275 9.2554 69.9355 8.46606C71.3649 7.67673 72.9435 7.28206 74.6715 7.28206C76.3995 7.28206 77.9675 7.67673 79.3755 8.46606C80.7835 9.2554 81.9035 10.3327 82.7355 11.6981C83.5889 13.0634 84.0155 14.6314 84.0155 16.4021C84.0155 18.1514 83.5889 19.7194 82.7355 21.1061C81.9035 22.4714 80.7835 23.5487 79.3755 24.3381C77.9675 25.1274 76.3995 25.5221 74.6715 25.5221ZM74.6715 21.2021C75.5462 21.2021 76.3035 20.9994 76.9435 20.5941C77.6049 20.1887 78.1169 19.6234 78.4795 18.8981C78.8635 18.1727 79.0555 17.3407 79.0555 16.4021C79.0555 15.4634 78.8635 14.6421 78.4795 13.9381C78.1169 13.2127 77.6049 12.6474 76.9435 12.2421C76.3035 11.8154 75.5462 11.6021 74.6715 11.6021C73.7969 11.6021 73.0289 11.8154 72.3675 12.2421C71.7062 12.6474 71.1835 13.2127 70.7995 13.9381C70.4369 14.6421 70.2555 15.4634 70.2555 16.4021C70.2555 17.3407 70.4369 18.1727 70.7995 18.8981C71.1835 19.6234 71.7062 20.1887 72.3675 20.5941C73.0289 20.9994 73.7969 21.2021 74.6715 21.2021Z" fill="#000112"/>
<path d="M86.8433 25.1381V7.66606H91.3233V11.1221L91.0673 10.3541C91.4726 9.30873 92.1233 8.54073 93.0193 8.05006C93.9366 7.53806 95.0033 7.28206 96.2193 7.28206C97.542 7.28206 98.6939 7.5594 99.6753 8.11406C100.678 8.66873 101.457 9.4474 102.011 10.4501C102.566 11.4314 102.843 12.5834 102.843 13.9061V25.1381H98.0433V14.9301C98.0433 14.2474 97.9046 13.6607 97.6273 13.1701C97.3713 12.6794 96.9979 12.2954 96.5073 12.0181C96.0379 11.7407 95.4833 11.6021 94.8433 11.6021C94.2246 11.6021 93.6699 11.7407 93.1793 12.0181C92.6886 12.2954 92.3046 12.6794 92.0273 13.1701C91.7713 13.6607 91.6433 14.2474 91.6433 14.9301V25.1381H86.8433Z" fill="#000112"/>
<path d="M114.416 25.5221C112.56 25.5221 110.949 25.1167 109.584 24.3061C108.218 23.4741 107.162 22.3647 106.416 20.9781C105.669 19.5914 105.296 18.0554 105.296 16.3701C105.296 14.6207 105.68 13.0634 106.448 11.6981C107.237 10.3327 108.293 9.2554 109.616 8.46606C110.938 7.67673 112.432 7.28206 114.096 7.28206C115.482 7.28206 116.709 7.50606 117.776 7.95406C118.842 8.38073 119.738 8.98873 120.464 9.77806C121.21 10.5674 121.776 11.4847 122.16 12.5301C122.544 13.5541 122.736 14.6741 122.736 15.8901C122.736 16.2314 122.714 16.5727 122.672 16.9141C122.65 17.2341 122.597 17.5114 122.512 17.7461H109.424V14.2261H119.792L117.52 15.8901C117.733 14.9727 117.722 14.1621 117.488 13.4581C117.253 12.7327 116.837 12.1674 116.24 11.7621C115.664 11.3354 114.949 11.1221 114.096 11.1221C113.264 11.1221 112.549 11.3247 111.952 11.7301C111.354 12.1354 110.906 12.7327 110.608 13.5221C110.309 14.3114 110.192 15.2714 110.256 16.4021C110.17 17.3834 110.288 18.2474 110.608 18.9941C110.928 19.7407 111.418 20.3274 112.08 20.7541C112.741 21.1594 113.541 21.3621 114.48 21.3621C115.333 21.3621 116.058 21.1914 116.656 20.8501C117.274 20.5087 117.754 20.0394 118.096 19.4421L121.936 21.2661C121.594 22.1194 121.05 22.8661 120.304 23.5061C119.578 24.1461 118.714 24.6474 117.712 25.0101C116.709 25.3514 115.61 25.5221 114.416 25.5221Z" fill="#000112"/>
<path d="M124.154 25.1381V21.2981L134.202 10.2261L134.906 11.8261H124.57V7.66606H139.162V11.5061L129.37 22.6101L128.666 20.9781H139.194V25.1381H124.154Z" fill="#000112"/>
<path d="M149.984 25.5221C148.256 25.5221 146.677 25.1274 145.248 24.3381C143.84 23.5487 142.709 22.4714 141.856 21.1061C141.024 19.7194 140.608 18.1514 140.608 16.4021C140.608 14.6314 141.024 13.0634 141.856 11.6981C142.709 10.3327 143.84 9.2554 145.248 8.46606C146.677 7.67673 148.256 7.28206 149.984 7.28206C151.712 7.28206 153.28 7.67673 154.688 8.46606C156.096 9.2554 157.216 10.3327 158.048 11.6981C158.901 13.0634 159.328 14.6314 159.328 16.4021C159.328 18.1514 158.901 19.7194 158.048 21.1061C157.216 22.4714 156.096 23.5487 154.688 24.3381C153.28 25.1274 151.712 25.5221 149.984 25.5221ZM149.984 21.2021C150.859 21.2021 151.616 20.9994 152.256 20.5941C152.917 20.1887 153.429 19.6234 153.792 18.8981C154.176 18.1727 154.368 17.3407 154.368 16.4021C154.368 15.4634 154.176 14.6421 153.792 13.9381C153.429 13.2127 152.917 12.6474 152.256 12.2421C151.616 11.8154 150.859 11.6021 149.984 11.6021C149.109 11.6021 148.341 11.8154 147.68 12.2421C147.019 12.6474 146.496 13.2127 146.112 13.9381C145.749 14.6421 145.568 15.4634 145.568 16.4021C145.568 17.3407 145.749 18.1727 146.112 18.8981C146.496 19.6234 147.019 20.1887 147.68 20.5941C148.341 20.9994 149.109 21.2021 149.984 21.2021Z" fill="#000112"/>
<path d="M22.0235 12.8668C22.0235 17.6862 17.8982 21.8196 12.5235 21.8196C7.14882 21.8196 3.0235 17.6862 3.0235 12.8668C3.0235 8.0475 7.14882 3.91406 12.5235 3.91406C17.8982 3.91406 22.0235 8.0475 22.0235 12.8668Z" stroke="#635FC7" stroke-width="6"/>
<path d="M24.7643 13.9611C24.7643 18.7804 20.639 22.9139 15.2643 22.9139C9.8896 22.9139 5.76428 18.7804 5.76428 13.9611C5.76428 9.14174 9.8896 5.0083 15.2643 5.0083C20.639 5.0083 24.7643 9.14174 24.7643 13.9611Z" stroke="#8784D2" stroke-width="6"/>
<path d="M24.7643 13.9611C24.7643 18.7804 20.639 22.9139 15.2643 22.9139C9.8896 22.9139 5.76428 18.7804 5.76428 13.9611C5.76428 9.14174 9.8896 5.0083 15.2643 5.0083C20.639 5.0083 24.7643 9.14174 24.7643 13.9611Z" stroke="#AAA8DC" stroke-width="6"/>
</svg>
