<svg width="160" height="26" viewBox="0 0 160 26" fill="none" xmlns="http://www.w3.org/2000/svg">
<path d="M52.6923 24.92C50.9856 24.92 49.4603 24.5147 48.1163 23.704C46.7723 22.8933 45.7056 21.7947 44.9163 20.408C44.1483 19.0213 43.7643 17.4853 43.7643 15.8C43.7643 14.0933 44.1589 12.5573 44.9483 11.192C45.7376 9.80535 46.8043 8.70668 48.1483 7.89601C49.4923 7.08534 50.9963 6.68001 52.6603 6.68001C53.9403 6.68001 55.0709 6.92535 56.0523 7.41601C57.0549 7.88535 57.8443 8.55735 58.4203 9.43201L57.6843 10.392V0.312012H62.4843V24.536H58.0043V21.336L58.4523 22.328C57.8549 23.1813 57.0443 23.832 56.0203 24.28C54.9963 24.7067 53.8869 24.92 52.6923 24.92ZM53.2683 20.6C54.1429 20.6 54.9109 20.3973 55.5723 19.992C56.2336 19.5867 56.7456 19.0213 57.1083 18.296C57.4923 17.5707 57.6843 16.7387 57.6843 15.8C57.6843 14.8613 57.4923 14.0293 57.1083 13.304C56.7456 12.5787 56.2336 12.0133 55.5723 11.608C54.9109 11.2027 54.1429 11 53.2683 11C52.3936 11 51.6043 11.2133 50.9003 11.64C50.2176 12.0453 49.6843 12.6107 49.3003 13.336C48.9163 14.04 48.7243 14.8613 48.7243 15.8C48.7243 16.7387 48.9163 17.5707 49.3003 18.296C49.6843 19.0213 50.2176 19.5867 50.9003 19.992C51.6043 20.3973 52.3936 20.6 53.2683 20.6Z" fill="#F4F7FD"/>
<path d="M74.6715 24.92C72.9435 24.92 71.3649 24.5253 69.9355 23.736C68.5275 22.9467 67.3969 21.8693 66.5435 20.504C65.7115 19.1173 65.2955 17.5493 65.2955 15.8C65.2955 14.0293 65.7115 12.4613 66.5435 11.096C67.3969 9.73068 68.5275 8.65335 69.9355 7.86401C71.3649 7.07468 72.9435 6.68001 74.6715 6.68001C76.3995 6.68001 77.9675 7.07468 79.3755 7.86401C80.7835 8.65335 81.9035 9.73068 82.7355 11.096C83.5889 12.4613 84.0155 14.0293 84.0155 15.8C84.0155 17.5493 83.5889 19.1173 82.7355 20.504C81.9035 21.8693 80.7835 22.9467 79.3755 23.736C77.9675 24.5253 76.3995 24.92 74.6715 24.92ZM74.6715 20.6C75.5462 20.6 76.3035 20.3973 76.9435 19.992C77.6049 19.5867 78.1169 19.0213 78.4795 18.296C78.8635 17.5707 79.0555 16.7387 79.0555 15.8C79.0555 14.8613 78.8635 14.04 78.4795 13.336C78.1169 12.6107 77.6049 12.0453 76.9435 11.64C76.3035 11.2133 75.5462 11 74.6715 11C73.7969 11 73.0289 11.2133 72.3675 11.64C71.7062 12.0453 71.1835 12.6107 70.7995 13.336C70.4369 14.04 70.2555 14.8613 70.2555 15.8C70.2555 16.7387 70.4369 17.5707 70.7995 18.296C71.1835 19.0213 71.7062 19.5867 72.3675 19.992C73.0289 20.3973 73.7969 20.6 74.6715 20.6Z" fill="#F4F7FD"/>
<path d="M86.8433 24.536V7.06401H91.3233V10.52L91.0673 9.75201C91.4726 8.70668 92.1233 7.93868 93.0193 7.44801C93.9366 6.93601 95.0033 6.68001 96.2193 6.68001C97.542 6.68001 98.6939 6.95735 99.6753 7.51201C100.678 8.06668 101.457 8.84534 102.011 9.84801C102.566 10.8293 102.843 11.9813 102.843 13.304V24.536H98.0433V14.328C98.0433 13.6453 97.9046 13.0587 97.6273 12.568C97.3713 12.0773 96.9979 11.6933 96.5073 11.416C96.0379 11.1387 95.4833 11 94.8433 11C94.2246 11 93.6699 11.1387 93.1793 11.416C92.6886 11.6933 92.3046 12.0773 92.0273 12.568C91.7713 13.0587 91.6433 13.6453 91.6433 14.328V24.536H86.8433Z" fill="#F4F7FD"/>
<path d="M114.416 24.92C112.56 24.92 110.949 24.5147 109.584 23.704C108.218 22.872 107.162 21.7627 106.416 20.376C105.669 18.9893 105.296 17.4533 105.296 15.768C105.296 14.0187 105.68 12.4613 106.448 11.096C107.237 9.73068 108.293 8.65335 109.616 7.86401C110.938 7.07468 112.432 6.68001 114.096 6.68001C115.482 6.68001 116.709 6.90401 117.776 7.35201C118.842 7.77868 119.738 8.38668 120.464 9.17601C121.21 9.96535 121.776 10.8827 122.16 11.928C122.544 12.952 122.736 14.072 122.736 15.288C122.736 15.6293 122.714 15.9707 122.672 16.312C122.65 16.632 122.597 16.9093 122.512 17.144H109.424V13.624H119.792L117.52 15.288C117.733 14.3707 117.722 13.56 117.488 12.856C117.253 12.1307 116.837 11.5653 116.24 11.16C115.664 10.7333 114.949 10.52 114.096 10.52C113.264 10.52 112.549 10.7227 111.952 11.128C111.354 11.5333 110.906 12.1307 110.608 12.92C110.309 13.7093 110.192 14.6693 110.256 15.8C110.17 16.7813 110.288 17.6453 110.608 18.392C110.928 19.1387 111.418 19.7253 112.08 20.152C112.741 20.5573 113.541 20.76 114.48 20.76C115.333 20.76 116.058 20.5893 116.656 20.248C117.274 19.9067 117.754 19.4373 118.096 18.84L121.936 20.664C121.594 21.5173 121.05 22.264 120.304 22.904C119.578 23.544 118.714 24.0453 117.712 24.408C116.709 24.7493 115.61 24.92 114.416 24.92Z" fill="#F4F7FD"/>
<path d="M124.154 24.536V20.696L134.202 9.62401L134.906 11.224H124.57V7.06401H139.162V10.904L129.37 22.008L128.666 20.376H139.194V24.536H124.154Z" fill="#F4F7FD"/>
<path d="M149.984 24.92C148.256 24.92 146.677 24.5253 145.248 23.736C143.84 22.9467 142.709 21.8693 141.856 20.504C141.024 19.1173 140.608 17.5493 140.608 15.8C140.608 14.0293 141.024 12.4613 141.856 11.096C142.709 9.73068 143.84 8.65335 145.248 7.86401C146.677 7.07468 148.256 6.68001 149.984 6.68001C151.712 6.68001 153.28 7.07468 154.688 7.86401C156.096 8.65335 157.216 9.73068 158.048 11.096C158.901 12.4613 159.328 14.0293 159.328 15.8C159.328 17.5493 158.901 19.1173 158.048 20.504C157.216 21.8693 156.096 22.9467 154.688 23.736C153.28 24.5253 151.712 24.92 149.984 24.92ZM149.984 20.6C150.859 20.6 151.616 20.3973 152.256 19.992C152.917 19.5867 153.429 19.0213 153.792 18.296C154.176 17.5707 154.368 16.7387 154.368 15.8C154.368 14.8613 154.176 14.04 153.792 13.336C153.429 12.6107 152.917 12.0453 152.256 11.64C151.616 11.2133 150.859 11 149.984 11C149.109 11 148.341 11.2133 147.68 11.64C147.019 12.0453 146.496 12.6107 146.112 13.336C145.749 14.04 145.568 14.8613 145.568 15.8C145.568 16.7387 145.749 17.5707 146.112 18.296C146.496 19.0213 147.019 19.5867 147.68 19.992C148.341 20.3973 149.109 20.6 149.984 20.6Z" fill="#F4F7FD"/>
<path d="M22.0235 12.2648C22.0235 17.0841 17.8982 21.2176 12.5235 21.2176C7.14882 21.2176 3.0235 17.0841 3.0235 12.2648C3.0235 7.44545 7.14882 3.31201 12.5235 3.31201C17.8982 3.31201 22.0235 7.44545 22.0235 12.2648Z" stroke="#635FC7" stroke-width="6"/>
<path d="M24.7643 13.359C24.7643 18.1784 20.639 22.3118 15.2643 22.3118C9.8896 22.3118 5.76428 18.1784 5.76428 13.359C5.76428 8.53969 9.8896 4.40625 15.2643 4.40625C20.639 4.40625 24.7643 8.53969 24.7643 13.359Z" stroke="#8784D2" stroke-width="6"/>
<path d="M24.7643 13.359C24.7643 18.1784 20.639 22.3118 15.2643 22.3118C9.8896 22.3118 5.76428 18.1784 5.76428 13.359C5.76428 8.53969 9.8896 4.40625 15.2643 4.40625C20.639 4.40625 24.7643 8.53969 24.7643 13.359Z" stroke="#AAA8DC" stroke-width="6"/>
</svg>
