<svg width="29" height="26" viewBox="0 0 29 26" fill="none" xmlns="http://www.w3.org/2000/svg">
<path d="M22.7643 12.5807C22.7643 17.4001 18.639 21.5335 13.2643 21.5335C7.8896 21.5335 3.76428 17.4001 3.76428 12.5807C3.76428 7.76137 7.8896 3.62793 13.2643 3.62793C18.639 3.62793 22.7643 7.76137 22.7643 12.5807Z" stroke="#635FC7" stroke-width="6"/>
<path d="M25.5051 13.675C25.5051 18.4943 21.3797 22.6277 16.0051 22.6277C10.6304 22.6277 6.50507 18.4943 6.50507 13.675C6.50507 8.85561 10.6304 4.72217 16.0051 4.72217C21.3797 4.72217 25.5051 8.85561 25.5051 13.675Z" stroke="#8784D2" stroke-width="6"/>
<path d="M25.5051 13.675C25.5051 18.4943 21.3797 22.6277 16.0051 22.6277C10.6304 22.6277 6.50507 18.4943 6.50507 13.675C6.50507 8.85561 10.6304 4.72217 16.0051 4.72217C21.3797 4.72217 25.5051 8.85561 25.5051 13.675Z" stroke="#AAA8DC" stroke-width="6"/>
</svg>
