<svg width="20" height="26" viewBox="0 0 20 26" fill="none" xmlns="http://www.w3.org/2000/svg">
<path fill-rule="evenodd" clip-rule="evenodd" d="M1.59775 6.69294C0.816821 5.93038 0.816701 4.69409 1.59739 3.93138C1.59751 3.93126 1.59727 3.9315 1.59739 3.93138C1.59769 3.93109 1.59835 3.93044 1.59865 3.93015C2.07975 3.46046 2.5903 3.03706 3.12449 2.65995C3.6118 2.31595 4.11878 2.01046 4.64103 1.7435C8.26028 -0.106558 12.6129 -0.106558 16.2321 1.7435C16.7544 2.01046 17.2614 2.31595 17.7487 2.65995C18.2832 3.03729 18.7941 3.46099 19.2754 3.93103C20.0561 4.69333 20.0565 5.92902 19.2766 6.6918C19.2762 6.69218 19.2758 6.69256 19.2754 6.69294L13.265 12.562L19.2754 18.4311C19.276 18.4316 19.2765 18.4322 19.2771 18.4327C20.0565 19.1955 20.0559 20.4309 19.2754 21.193C18.7941 21.663 18.2832 22.0867 17.7487 22.4641C17.2614 22.8081 16.7544 23.1136 16.2321 23.3805C12.6129 25.2306 8.26028 25.2306 4.64103 23.3805C4.11878 23.1136 3.6118 22.8081 3.12449 22.4641C2.58996 22.0867 2.07911 21.663 1.59775 21.193C0.817003 20.4306 0.816701 19.1947 1.59684 18.432C1.59715 18.4317 1.59745 18.4314 1.59775 18.4311L7.60816 12.562L1.59775 6.69294ZM10.4366 9.80009L14.8655 5.47537C14.2467 5.10598 13.5901 4.82092 12.9128 4.6202C11.3009 4.14246 9.57228 4.14246 7.96037 4.6202C7.28311 4.82092 6.62646 5.10598 6.00771 5.47537L10.4366 9.80009ZM6.00771 19.6486C6.62646 20.018 7.28311 20.3031 7.96037 20.5038C9.57228 20.9816 11.3009 20.9816 12.9128 20.5038C13.5901 20.3031 14.2467 20.018 14.8655 19.6486L10.4366 15.3239L6.00771 19.6486Z" fill="#AAA8DC"/>
<path fill-rule="evenodd" clip-rule="evenodd" d="M1.06223 7.28083C0.281298 6.51827 0.281178 5.28198 1.06187 4.51927L1.06313 4.51804C1.54422 4.04835 2.05477 3.62495 2.58897 3.24784C3.07627 2.90384 3.58326 2.59835 4.10551 2.33139C7.72476 0.481332 12.0774 0.481332 15.6966 2.33139C16.2189 2.59835 16.7258 2.90384 17.2132 3.24784C17.7477 3.62518 18.2585 4.04888 18.7399 4.51892C19.5206 5.28122 19.5209 6.51691 18.7411 7.27969L18.7399 7.28083L12.7295 13.1499L18.7399 19.019L18.7416 19.0206C19.5209 19.7834 19.5204 21.0187 18.7399 21.7809C18.2585 22.2509 17.7477 22.6746 17.2132 23.052C16.7258 23.396 16.2189 23.7014 15.6966 23.9684C12.0774 25.8185 7.72476 25.8185 4.10551 23.9684C3.58326 23.7014 3.07627 23.396 2.58897 23.052C2.05444 22.6746 1.54359 22.2509 1.06223 21.7809C0.28148 21.0185 0.281178 19.7826 1.06132 19.0199L1.06223 19.019L7.07263 13.1499L1.06223 7.28083ZM9.90106 10.388L14.3299 6.06326C13.7112 5.69387 13.0545 5.40881 12.3773 5.20809C10.7654 4.73035 9.03676 4.73035 7.42484 5.20809C6.74759 5.40881 6.09093 5.69387 5.47219 6.06326L9.90106 10.388ZM5.47219 20.2365C6.09093 20.6059 6.74759 20.891 7.42485 21.0917C9.03676 21.5694 10.7654 21.5695 12.3773 21.0917C13.0545 20.891 13.7112 20.6059 14.3299 20.2365L9.90106 15.9118L5.47219 20.2365Z" fill="#635FC7"/>
</svg>
