<svg width="147" height="28" viewBox="0 0 147 28" fill="none" xmlns="http://www.w3.org/2000/svg">
<path fill-rule="evenodd" clip-rule="evenodd" d="M1.00479 9.49909C0.223864 8.73653 0.223744 7.50024 1.00443 6.73753L1.00569 6.7363C1.48679 6.26661 1.99734 5.84321 2.53153 5.4661C3.01884 5.1221 3.52582 4.81662 4.04807 4.54966C7.66732 2.69959 12.0199 2.69959 15.6392 4.54966C16.1614 4.81662 16.6684 5.1221 17.1557 5.4661C17.6902 5.84345 18.2011 6.26714 18.6825 6.73718C19.4631 7.49948 19.4635 8.73517 18.6836 9.49795L18.6825 9.49909L12.6721 15.3682L18.6825 21.2372L18.6841 21.2389C19.4635 22.0017 19.463 23.237 18.6825 23.9991C18.2011 24.4692 17.6902 24.8929 17.1557 25.2702C16.6684 25.6142 16.1614 25.9197 15.6392 26.1867C12.0199 28.0367 7.66732 28.0367 4.04807 26.1867C3.52582 25.9197 3.01884 25.6142 2.53153 25.2702C1.99701 24.8929 1.48615 24.4692 1.00479 23.9991C0.224046 23.2368 0.223744 22.0009 1.00389 21.2381L1.00479 21.2372L7.0152 15.3682L1.00479 9.49909ZM9.84363 12.6062L14.2725 8.28153C13.6538 7.91213 12.9971 7.62707 12.3198 7.42635C10.7079 6.94861 8.97932 6.94861 7.36741 7.42635C6.69015 7.62707 6.0335 7.91213 5.41476 8.28153L9.84363 12.6062ZM5.41476 22.4548C6.0335 22.8242 6.69016 23.1093 7.36741 23.31C8.97932 23.7877 10.7079 23.7877 12.3198 23.31C12.9971 23.1093 13.6538 22.8242 14.2725 22.4548L9.84363 18.1301L5.41476 22.4548Z" fill="#635FC7"/>
<path d="M37.2522 27.3288C35.5456 27.3288 34.0202 26.9235 32.6762 26.1128C31.3322 25.3022 30.2656 24.2035 29.4762 22.8168C28.7082 21.4302 28.3242 19.8942 28.3242 18.2088C28.3242 16.5022 28.7189 14.9662 29.5082 13.6008C30.2976 12.2142 31.3642 11.1155 32.7082 10.3048C34.0522 9.49416 35.5562 9.08882 37.2203 9.08882C38.5003 9.08882 39.6309 9.33416 40.6123 9.82482C41.6149 10.2942 42.4043 10.9662 42.9803 11.8408L42.2443 12.8008V2.72082H47.0443V26.9448H42.5642V23.7448L43.0122 24.7368C42.4149 25.5902 41.6042 26.2408 40.5802 26.6888C39.5563 27.1155 38.4469 27.3288 37.2522 27.3288ZM37.8282 23.0088C38.7029 23.0088 39.4709 22.8062 40.1322 22.4008C40.7936 21.9955 41.3056 21.4302 41.6683 20.7048C42.0523 19.9795 42.2443 19.1475 42.2443 18.2088C42.2443 17.2702 42.0523 16.4382 41.6683 15.7128C41.3056 14.9875 40.7936 14.4222 40.1322 14.0168C39.4709 13.6115 38.7029 13.4088 37.8282 13.4088C36.9536 13.4088 36.1642 13.6222 35.4602 14.0488C34.7776 14.4542 34.2442 15.0195 33.8602 15.7448C33.4762 16.4488 33.2842 17.2702 33.2842 18.2088C33.2842 19.1475 33.4762 19.9795 33.8602 20.7048C34.2442 21.4302 34.7776 21.9955 35.4602 22.4008C36.1642 22.8062 36.9536 23.0088 37.8282 23.0088ZM59.2315 27.3288C57.5035 27.3288 55.9248 26.9342 54.4955 26.1448C53.0875 25.3555 51.9568 24.2782 51.1035 22.9128C50.2715 21.5262 49.8555 19.9582 49.8555 18.2088C49.8555 16.4382 50.2715 14.8702 51.1035 13.5048C51.9568 12.1395 53.0875 11.0622 54.4955 10.2728C55.9248 9.48349 57.5035 9.08882 59.2315 9.08882C60.9595 9.08882 62.5275 9.48349 63.9355 10.2728C65.3435 11.0622 66.4635 12.1395 67.2955 13.5048C68.1488 14.8702 68.5755 16.4382 68.5755 18.2088C68.5755 19.9582 68.1488 21.5262 67.2955 22.9128C66.4635 24.2782 65.3435 25.3555 63.9355 26.1448C62.5275 26.9342 60.9595 27.3288 59.2315 27.3288ZM59.2315 23.0088C60.1062 23.0088 60.8635 22.8062 61.5035 22.4008C62.1648 21.9955 62.6768 21.4302 63.0395 20.7048C63.4235 19.9795 63.6155 19.1475 63.6155 18.2088C63.6155 17.2702 63.4235 16.4488 63.0395 15.7448C62.6768 15.0195 62.1648 14.4542 61.5035 14.0488C60.8635 13.6222 60.1062 13.4088 59.2315 13.4088C58.3568 13.4088 57.5888 13.6222 56.9275 14.0488C56.2662 14.4542 55.7435 15.0195 55.3595 15.7448C54.9968 16.4488 54.8155 17.2702 54.8155 18.2088C54.8155 19.1475 54.9968 19.9795 55.3595 20.7048C55.7435 21.4302 56.2662 21.9955 56.9275 22.4008C57.5888 22.8062 58.3568 23.0088 59.2315 23.0088ZM71.4032 26.9448V9.47282H75.8832V12.9288L75.6272 12.1608C76.0326 11.1155 76.6832 10.3475 77.5792 9.85682C78.4966 9.34482 79.5632 9.08882 80.7793 9.08882C82.1019 9.08882 83.2539 9.36616 84.2353 9.92082C85.2379 10.4755 86.0166 11.2542 86.5713 12.2568C87.1259 13.2382 87.4032 14.3902 87.4032 15.7128V26.9448H82.6033V16.7368C82.6033 16.0542 82.4646 15.4675 82.1873 14.9768C81.9313 14.4862 81.5579 14.1022 81.0673 13.8248C80.5979 13.5475 80.0432 13.4088 79.4032 13.4088C78.7846 13.4088 78.2299 13.5475 77.7393 13.8248C77.2486 14.1022 76.8646 14.4862 76.5872 14.9768C76.3312 15.4675 76.2032 16.0542 76.2032 16.7368V26.9448H71.4032ZM98.9755 27.3288C97.1195 27.3288 95.5088 26.9235 94.1435 26.1128C92.7782 25.2808 91.7222 24.1715 90.9755 22.7848C90.2288 21.3982 89.8555 19.8622 89.8555 18.1768C89.8555 16.4275 90.2395 14.8702 91.0075 13.5048C91.7968 12.1395 92.8528 11.0622 94.1755 10.2728C95.4982 9.48349 96.9915 9.08882 98.6555 9.08882C100.042 9.08882 101.269 9.31282 102.335 9.76082C103.402 10.1875 104.298 10.7955 105.024 11.5848C105.77 12.3742 106.336 13.2915 106.719 14.3368C107.103 15.3608 107.295 16.4808 107.295 17.6968C107.295 18.0382 107.274 18.3795 107.232 18.7208C107.21 19.0408 107.157 19.3182 107.072 19.5528H93.9835V16.0328H104.352L102.08 17.6968C102.293 16.7795 102.282 15.9688 102.048 15.2648C101.813 14.5395 101.397 13.9742 100.8 13.5688C100.224 13.1422 99.5088 12.9288 98.6555 12.9288C97.8235 12.9288 97.1088 13.1315 96.5115 13.5368C95.9142 13.9422 95.4662 14.5395 95.1675 15.3288C94.8688 16.1182 94.7515 17.0782 94.8155 18.2088C94.7302 19.1902 94.8475 20.0542 95.1675 20.8008C95.4875 21.5475 95.9782 22.1342 96.6395 22.5608C97.3008 22.9662 98.1008 23.1688 99.0395 23.1688C99.8928 23.1688 100.618 22.9982 101.215 22.6568C101.834 22.3155 102.314 21.8462 102.656 21.2488L106.496 23.0728C106.154 23.9262 105.61 24.6728 104.864 25.3128C104.138 25.9528 103.274 26.4542 102.272 26.8168C101.269 27.1582 100.17 27.3288 98.9755 27.3288ZM108.714 26.9448V23.1048L118.762 12.0328L119.466 13.6328H109.13V9.47282H123.722V13.3128L113.93 24.4168L113.226 22.7848H123.754V26.9448H108.714ZM134.544 27.3288C132.816 27.3288 131.237 26.9342 129.808 26.1448C128.4 25.3555 127.269 24.2782 126.416 22.9128C125.584 21.5262 125.168 19.9582 125.168 18.2088C125.168 16.4382 125.584 14.8702 126.416 13.5048C127.269 12.1395 128.4 11.0622 129.808 10.2728C131.237 9.48349 132.816 9.08882 134.544 9.08882C136.272 9.08882 137.84 9.48349 139.248 10.2728C140.656 11.0622 141.776 12.1395 142.608 13.5048C143.461 14.8702 143.888 16.4382 143.888 18.2088C143.888 19.9582 143.461 21.5262 142.608 22.9128C141.776 24.2782 140.656 25.3555 139.248 26.1448C137.84 26.9342 136.272 27.3288 134.544 27.3288ZM134.544 23.0088C135.419 23.0088 136.176 22.8062 136.816 22.4008C137.477 21.9955 137.989 21.4302 138.352 20.7048C138.736 19.9795 138.928 19.1475 138.928 18.2088C138.928 17.2702 138.736 16.4488 138.352 15.7448C137.989 15.0195 137.477 14.4542 136.816 14.0488C136.176 13.6222 135.419 13.4088 134.544 13.4088C133.669 13.4088 132.901 13.6222 132.24 14.0488C131.579 14.4542 131.056 15.0195 130.672 15.7448C130.309 16.4488 130.128 17.2702 130.128 18.2088C130.128 19.1475 130.309 19.9795 130.672 20.7048C131.056 21.4302 131.579 21.9955 132.24 22.4008C132.901 22.8062 133.669 23.0088 134.544 23.0088Z" fill="#000112"/>
</svg>
